<svg width="78" height="78" viewBox="0 0 78 78" fill="none" xmlns="http://www.w3.org/2000/svg">
<path d="M73.5995 16.9246H64.3752V72.2704H73.5995V16.9246Z" stroke="#0B52B9" stroke-width="2" stroke-miterlimit="10" stroke-linecap="round" stroke-linejoin="round"/>
<path d="M64.3751 28.455H55.1508V72.2704H64.3751V28.455Z" stroke="#0B52B9" stroke-width="2" stroke-miterlimit="10" stroke-linecap="round" stroke-linejoin="round"/>
<path d="M55.1509 35.3732H45.9266V72.2704H55.1509V35.3732Z" stroke="#0B52B9" stroke-width="2" stroke-miterlimit="10" stroke-linecap="round" stroke-linejoin="round"/>
<path d="M45.9266 45.7506H36.7023V72.2705H45.9266V45.7506Z" stroke="#0B52B9" stroke-width="2" stroke-miterlimit="10" stroke-linecap="round" stroke-linejoin="round"/>
<path d="M21.9432 34.3356C28.948 34.3356 34.6266 28.657 34.6266 21.6522C34.6266 14.6473 28.948 8.96875 21.9432 8.96875C14.9383 8.96875 9.25977 14.6473 9.25977 21.6522C9.25977 28.657 14.9383 34.3356 21.9432 34.3356Z" stroke="#0B52B9" stroke-width="2" stroke-miterlimit="10" stroke-linecap="round" stroke-linejoin="round"/>
<path d="M21.9434 40.1007C32.1322 40.1007 40.392 31.841 40.392 21.6521C40.392 11.4632 32.1322 3.20349 21.9434 3.20349C11.7545 3.20349 3.49475 11.4632 3.49475 21.6521C3.49475 31.841 11.7545 40.1007 21.9434 40.1007Z" stroke="#0B52B9" stroke-width="2" stroke-miterlimit="10" stroke-linecap="round" stroke-linejoin="round"/>
<path d="M24.5952 40.5619V46.3271H19.983V40.5619" stroke="#0B52B9" stroke-width="2" stroke-miterlimit="10" stroke-linecap="round" stroke-linejoin="round"/>
<path d="M29.2075 46.327H15.3711V50.9392H29.2075V46.327Z" stroke="#0B52B9" stroke-width="2" stroke-miterlimit="10" stroke-linecap="round" stroke-linejoin="round"/>
<path d="M22.2892 74C19.7525 74 17.677 71.9245 17.677 69.3878V50.9392H26.9013V69.3878C26.9013 71.9245 24.8258 74 22.2892 74Z" stroke="#0B52B9" stroke-width="2" stroke-miterlimit="10" stroke-linecap="round" stroke-linejoin="round"/>
<path d="M71.0627 3.54932L63.9138 10.6982L59.7629 8.62268L53.1906 15.195L48.4631 13.8114L43.0439 19.2306L39.9307 18.0776" stroke="#0B52B9" stroke-width="2" stroke-miterlimit="10" stroke-linecap="round" stroke-linejoin="round"/>
<path d="M20.9055 24.5346L31.1676 14.7338" stroke="#0B52B9" stroke-width="2" stroke-miterlimit="10" stroke-linecap="round" stroke-linejoin="round"/>
<path d="M65.528 3.31873L71.0626 3.54933L70.9473 9.54513" stroke="#0B52B9" stroke-width="2" stroke-miterlimit="10" stroke-linecap="round" stroke-linejoin="round"/>
</svg>
