<svg width="68" height="68" viewBox="0 0 68 68" fill="none" xmlns="http://www.w3.org/2000/svg">
<path d="M34 54C31.7923 54 30 55.7944 30 58C30 60.2077 31.7923 62 34 62C36.2077 62 38 60.2077 38 58C38 55.7934 36.2077 54 34 54Z" stroke="#0B52B9" stroke-width="2" stroke-miterlimit="10" stroke-linecap="round" stroke-linejoin="round"/>
<path d="M20.0738 50H47.9243C48.5179 50 49 49.5301 49 48.9461V8.05294C49 7.47085 48.5169 7 47.9243 7H20.0738C19.4811 7 19 7.46989 19 8.05294V48.948C19 49.5301 19.4831 50 20.0738 50Z" stroke="#0B52B9" stroke-width="2" stroke-miterlimit="10" stroke-linecap="round" stroke-linejoin="round"/>
<path d="M19.194 66H48.807C51.1183 66 53 64.1065 53 61.7818V6.21815C53 3.88958 51.1183 2 48.807 2H19.194C16.8826 2 15 3.89349 15 6.21815V61.7809C15 64.1055 16.8826 66 19.194 66Z" stroke="#0B52B9" stroke-width="2" stroke-miterlimit="10" stroke-linecap="round" stroke-linejoin="round"/>
<path d="M34.0014 24.5835C31.8654 22.9729 28.5137 22.246 26.5393 24.0803C24.191 26.264 24.8218 29.3125 26.4834 31.3659C29.0662 34.556 32.359 37.0805 33.3057 37.7781C33.5057 37.9273 33.7515 38 33.9973 38C34.2431 38 34.4879 37.9245 34.688 37.7781C35.6356 37.0814 38.9243 34.5663 41.5133 31.364C43.181 29.3096 43.8087 26.2631 41.4574 24.0775C39.4961 22.2469 36.1292 22.9805 34.0014 24.5835Z" stroke="#0B52B9" stroke-width="2" stroke-miterlimit="10" stroke-linecap="round" stroke-linejoin="round"/>
</svg>
