<svg width="128" height="80" viewBox="0 0 128 80" fill="none" xmlns="http://www.w3.org/2000/svg">
<path d="M23.004 45.2883C22.3555 45.6046 21.6755 45.8418 20.9638 46C20.2679 46.174 19.4929 46.261 18.6389 46.261C17.4053 46.261 16.3694 46.0158 15.5311 45.5255C14.6929 45.0194 14.0128 44.3631 13.4909 43.5565C12.9848 42.7341 12.6211 41.801 12.3997 40.7572C12.1941 39.7133 12.0913 38.6458 12.0913 37.5545C12.0913 36.5265 12.1941 35.5222 12.3997 34.5417C12.6053 33.5611 12.9532 32.6913 13.4435 31.9321C13.9338 31.1572 14.5822 30.5404 15.3888 30.0817C16.1954 29.6072 17.2076 29.37 18.4254 29.37C19.9753 29.37 21.2326 29.7891 22.1974 30.6273C23.1621 31.4498 23.6603 32.6675 23.6919 34.2807H21.1061C21.1061 33.8695 21.0428 33.482 20.9163 33.1183C20.8056 32.7545 20.6395 32.4382 20.4181 32.1694C20.1967 31.9005 19.912 31.687 19.5641 31.5288C19.232 31.3707 18.8445 31.2916 18.4016 31.2916C17.6109 31.2916 16.9703 31.4893 16.4801 31.8847C15.9898 32.2643 15.6102 32.7624 15.3414 33.3792C15.0725 33.9802 14.8906 34.6524 14.7957 35.3957C14.7008 36.1232 14.6534 36.8349 14.6534 37.5308C14.6534 38.29 14.7166 39.0728 14.8432 39.8794C14.9697 40.6702 15.199 41.3898 15.5311 42.0382C15.8633 42.6867 16.3219 43.2165 16.9071 43.6277C17.4923 44.0389 18.2356 44.2445 19.1371 44.2445C19.8488 44.2445 20.5288 44.1259 21.1773 43.8886C21.8415 43.6514 22.4504 43.3509 23.004 42.9872V45.2883ZM31.8453 46V38.9542C31.8453 38.5746 31.8295 38.2267 31.7979 37.9104C31.7662 37.5941 31.6951 37.3173 31.5843 37.0801C31.4736 36.8428 31.3234 36.661 31.1336 36.5344C30.9438 36.4079 30.6908 36.3446 30.3745 36.3446C29.8842 36.3446 29.4572 36.5186 29.0934 36.8666C28.7297 37.2145 28.4292 37.6494 28.1919 38.1713C27.9705 38.6616 27.8044 39.1914 27.6937 39.7608C27.583 40.3301 27.5277 40.8916 27.5277 41.4451V46H25.4163V29.631H27.5277V36.9377H27.5751C27.8914 36.1311 28.3185 35.5143 28.8562 35.0873C29.3939 34.6603 30.0898 34.4468 30.9438 34.4468C31.9402 34.4468 32.6914 34.7789 33.1975 35.4432C33.7194 36.0916 33.9804 36.9852 33.9804 38.1239V46H31.8453ZM51.0405 46V29.631H53.1756V46H51.0405ZM62.3836 46V44.458H62.3361C62.0515 45.0273 61.664 45.4702 61.1737 45.7865C60.6834 46.1028 60.122 46.261 59.4894 46.261C58.6828 46.261 58.0185 46.0949 57.4966 45.7628C56.9747 45.4148 56.5635 44.9641 56.263 44.4105C55.9625 43.857 55.7569 43.2323 55.6462 42.5364C55.5355 41.8405 55.4801 41.1367 55.4801 40.425C55.4801 39.6501 55.5513 38.8988 55.6936 38.1713C55.8518 37.4438 56.0969 36.8112 56.4291 36.2735C56.7612 35.7199 57.1882 35.2771 57.7101 34.945C58.2478 34.6129 58.8884 34.4468 59.6317 34.4468C60.2485 34.4468 60.7704 34.5733 61.1974 34.8264C61.6403 35.0636 62.0198 35.459 62.3361 36.0125H62.3836V29.631H64.5187V46H62.3836ZM60.0113 44.6241C60.4857 44.6241 60.8732 44.4659 61.1737 44.1496C61.4742 43.8175 61.7193 43.4221 61.9091 42.9634C62.0673 42.568 62.1859 42.141 62.265 41.6824C62.344 41.2237 62.3836 40.7651 62.3836 40.3064C62.3836 39.8794 62.352 39.4287 62.2887 38.9542C62.2412 38.4639 62.1384 38.0132 61.9803 37.602C61.8063 37.1591 61.5612 36.7954 61.2449 36.5107C60.9444 36.2102 60.549 36.06 60.0587 36.06C59.5684 36.06 59.173 36.2181 58.8725 36.5344C58.5879 36.8507 58.3665 37.2461 58.2083 37.7206C58.066 38.1792 57.9711 38.6774 57.9236 39.2152C57.8762 39.7529 57.8524 40.2353 57.8524 40.6623C57.8524 41.0893 57.8762 41.54 57.9236 42.0145C57.9711 42.4731 58.0739 42.9002 58.232 43.2956C58.3902 43.6751 58.6116 43.9914 58.8963 44.2445C59.1809 44.4975 59.5526 44.6241 60.0113 44.6241ZM73.4568 46V29.631H81.8311V31.5288H75.7816V36.5582H81.4989V38.456H75.7816V46H73.4568ZM89.692 46V43.8175H89.6445C89.5022 44.1654 89.3282 44.4896 89.1226 44.7901C88.9328 45.0906 88.7035 45.3516 88.4347 45.573C88.1816 45.7786 87.8811 45.9446 87.5332 46.0712C87.1852 46.1977 86.7898 46.261 86.347 46.261C85.8093 46.261 85.3427 46.1661 84.9473 45.9763C84.5678 45.7865 84.2515 45.5334 83.9984 45.2171C83.7454 44.885 83.5556 44.4975 83.4291 44.0547C83.3183 43.6119 83.263 43.1295 83.263 42.6076V34.7077H85.3744V41.5163C85.3744 41.9433 85.3902 42.3308 85.4218 42.6787C85.4534 43.0267 85.5167 43.3272 85.6116 43.5802C85.7065 43.8175 85.8488 44.0072 86.0386 44.1496C86.2442 44.2919 86.5131 44.3631 86.8452 44.3631C87.3987 44.3631 87.8811 44.1417 88.2923 43.6988C88.7035 43.2402 89.0198 42.6787 89.2412 42.0145C89.3836 41.5875 89.4943 41.1446 89.5734 40.686C89.6524 40.2273 89.692 39.7687 89.692 39.31V34.7077H91.8034V46H89.692ZM101.198 46V39.2626C101.198 38.3453 101.111 37.6336 100.937 37.1275C100.763 36.6056 100.352 36.3446 99.7032 36.3446C99.1022 36.3446 98.604 36.5898 98.2086 37.0801C97.8132 37.5545 97.5048 38.1239 97.2834 38.7881C97.1411 39.1993 97.0304 39.6343 96.9513 40.0929C96.888 40.5516 96.8564 40.9944 96.8564 41.4214V46H94.745V34.7077H96.8564V36.9615H96.9038C97.0462 36.6135 97.2122 36.2893 97.402 35.9888C97.5918 35.6883 97.8132 35.4273 98.0663 35.2059C98.3351 34.9687 98.6435 34.7868 98.9915 34.6603C99.3552 34.518 99.7744 34.4468 100.249 34.4468C101.261 34.4468 102.02 34.7789 102.526 35.4432C103.048 36.0916 103.309 36.9615 103.309 38.0527V46H101.198ZM112.3 46V44.458H112.252C111.968 45.0273 111.58 45.4702 111.09 45.7865C110.599 46.1028 110.038 46.261 109.405 46.261C108.599 46.261 107.935 46.0949 107.413 45.7628C106.891 45.4148 106.48 44.9641 106.179 44.4105C105.879 43.857 105.673 43.2323 105.562 42.5364C105.452 41.8405 105.396 41.1367 105.396 40.425C105.396 39.6501 105.467 38.8988 105.61 38.1713C105.768 37.4438 106.013 36.8112 106.345 36.2735C106.677 35.7199 107.104 35.2771 107.626 34.945C108.164 34.6129 108.804 34.4468 109.548 34.4468C110.165 34.4468 110.686 34.5733 111.114 34.8264C111.556 35.0636 111.936 35.459 112.252 36.0125H112.3V29.631H114.435V46H112.3ZM109.927 44.6241C110.402 44.6241 110.789 44.4659 111.09 44.1496C111.39 43.8175 111.635 43.4221 111.825 42.9634C111.983 42.568 112.102 42.141 112.181 41.6824C112.26 41.2237 112.3 40.7651 112.3 40.3064C112.3 39.8794 112.268 39.4287 112.205 38.9542C112.157 38.4639 112.055 38.0132 111.896 37.602C111.722 37.1591 111.477 36.7954 111.161 36.5107C110.86 36.2102 110.465 36.06 109.975 36.06C109.485 36.06 109.089 36.2181 108.789 36.5344C108.504 36.8507 108.283 37.2461 108.124 37.7206C107.982 38.1792 107.887 38.6774 107.84 39.2152C107.792 39.7529 107.769 40.2353 107.769 40.6623C107.769 41.0893 107.792 41.54 107.84 42.0145C107.887 42.4731 107.99 42.9002 108.148 43.2956C108.306 43.6751 108.528 43.9914 108.812 44.2445C109.097 44.4975 109.469 44.6241 109.927 44.6241Z" fill="#AFAFAF"/>
<path d="M49.3117 32.4987C47.2666 34.6801 42.222 36.8616 36.3594 36.1799C35.7049 36.0708 35.814 36.498 35.9503 36.7252C36.4957 37.1343 38.0773 38.0068 40.0406 38.225C40.0406 40.1338 37.0411 45.9964 36.3594 47.3598C36.3594 48.4505 37.1774 47.8143 37.5864 47.3598L42.7674 41.7698L45.4942 47.2235C45.7669 47.7688 47.1303 49.2686 46.7212 47.4961C46.394 46.0782 46.2213 40.2701 46.1759 37.5433C46.9939 36.7252 48.7663 34.8983 49.3117 34.1348C49.9934 33.1804 49.9934 31.817 49.3117 32.4987Z" fill="#AFAFAF"/>
<path d="M68.5646 53.3598V48.4679H69.2665V53.3598H68.5646ZM72.8519 53.3598V51.3463C72.8519 51.0722 72.8259 50.8595 72.7739 50.7083C72.7219 50.5523 72.599 50.4743 72.4052 50.4743C72.2256 50.4743 72.0768 50.5476 71.9586 50.6941C71.8404 50.8359 71.7483 51.006 71.6821 51.2045C71.6396 51.3274 71.6065 51.4574 71.5828 51.5945C71.5639 51.7315 71.5545 51.8639 71.5545 51.9915V53.3598H70.9235V49.9851H71.5545V50.6586H71.5687C71.6112 50.5546 71.6608 50.4578 71.7175 50.3679C71.7743 50.2781 71.8404 50.2002 71.9161 50.134C71.9964 50.0631 72.0886 50.0087 72.1926 49.9709C72.3013 49.9284 72.4265 49.9071 72.5683 49.9071C72.8708 49.9071 73.0977 50.0064 73.2489 50.2049C73.4049 50.3987 73.4829 50.6586 73.4829 50.9848V53.3598H72.8519ZM76.6873 53.3953C76.5218 53.4236 76.3611 53.4378 76.2052 53.4378C75.8743 53.4378 75.6238 53.3716 75.4537 53.2393C75.2882 53.1069 75.2055 52.873 75.2055 52.5374V50.4743H74.6738V49.9851H75.2055V49.1911L75.8365 48.8437V49.9851H76.7298V50.4743H75.8365V52.3743C75.8365 52.5587 75.8743 52.7005 75.9499 52.7997C76.0256 52.8942 76.1579 52.9415 76.347 52.9415C76.3989 52.9415 76.4533 52.9391 76.51 52.9344C76.5667 52.9297 76.6258 52.9155 76.6873 52.8919V53.3953ZM80.2259 53.3314C80.0936 53.3693 79.9589 53.3953 79.8218 53.4094C79.6847 53.4283 79.5477 53.4378 79.4106 53.4378C79.1081 53.4378 78.8481 53.3929 78.6307 53.3031C78.418 53.2086 78.2432 53.0786 78.1061 52.9132C77.969 52.743 77.8674 52.5421 77.8012 52.3105C77.7398 52.0789 77.7091 51.8237 77.7091 51.5448C77.7091 51.318 77.7351 51.1053 77.787 50.9068C77.839 50.7083 77.9194 50.5357 78.0281 50.3892C78.1368 50.238 78.2786 50.1198 78.4535 50.0347C78.6284 49.9497 78.8411 49.9071 79.0916 49.9071C79.2901 49.9071 79.4649 49.9402 79.6162 50.0064C79.7722 50.0725 79.9021 50.1647 80.0061 50.2829C80.1101 50.401 80.1881 50.5428 80.2401 50.7083C80.2921 50.869 80.3181 51.0462 80.3181 51.24V51.4385H78.3755C78.3755 51.6323 78.3968 51.8213 78.4393 52.0057C78.4818 52.1853 78.5504 52.346 78.6449 52.4878C78.7394 52.6296 78.8623 52.743 79.0136 52.8281C79.1648 52.9132 79.3491 52.9557 79.5666 52.9557C79.6753 52.9557 79.784 52.9486 79.8927 52.9344C80.0014 52.9155 80.1125 52.8895 80.2259 52.8564V53.3314ZM79.6587 50.9989C79.6587 50.8099 79.6044 50.6563 79.4957 50.5381C79.3917 50.4152 79.2499 50.3538 79.0703 50.3538C78.8718 50.3538 78.7158 50.4176 78.6024 50.5452C78.4937 50.6681 78.4275 50.8193 78.4039 50.9989H79.6587ZM81.681 53.3598V49.9851H82.312V50.6161H82.3262C82.4349 50.3845 82.579 50.2096 82.7586 50.0915C82.9383 49.9686 83.1651 49.9071 83.4393 49.9071V50.5523C83.1226 50.5523 82.8792 50.6326 82.709 50.7933C82.5389 50.954 82.4231 51.1785 82.3616 51.4669C82.3285 51.6276 82.312 51.8024 82.312 51.9915V53.3598H81.681ZM86.5167 53.3598V51.3463C86.5167 51.0722 86.4907 50.8595 86.4388 50.7083C86.3868 50.5523 86.2639 50.4743 86.0701 50.4743C85.8905 50.4743 85.7416 50.5476 85.6234 50.6941C85.5053 50.8359 85.4131 51.006 85.3469 51.2045C85.3044 51.3274 85.2713 51.4574 85.2477 51.5945C85.2288 51.7315 85.2193 51.8639 85.2193 51.9915V53.3598H84.5883V49.9851H85.2193V50.6586H85.2335C85.276 50.5546 85.3257 50.4578 85.3824 50.3679C85.4391 50.2781 85.5053 50.2002 85.5809 50.134C85.6612 50.0631 85.7534 50.0087 85.8574 49.9709C85.9661 49.9284 86.0914 49.9071 86.2332 49.9071C86.5356 49.9071 86.7625 50.0064 86.9138 50.2049C87.0697 50.3987 87.1477 50.6586 87.1477 50.9848V53.3598H86.5167ZM90.423 53.3598V52.9132H90.4017C90.293 53.1022 90.1536 53.2369 89.9834 53.3173C89.8133 53.3976 89.6242 53.4378 89.4163 53.4378C89.1185 53.4378 88.8869 53.3598 88.7215 53.2038C88.5608 53.0479 88.4804 52.8446 88.4804 52.5941C88.4804 52.2018 88.6411 51.9064 88.9625 51.7079C89.2886 51.5094 89.7306 51.4101 90.2883 51.4101H90.4017V51.1478C90.4017 51.0297 90.3946 50.9233 90.3805 50.8288C90.3663 50.7342 90.3379 50.6539 90.2954 50.5877C90.2576 50.5216 90.2009 50.4696 90.1252 50.4318C90.0543 50.3939 89.9598 50.375 89.8416 50.375C89.662 50.375 89.5202 50.4128 89.4163 50.4885C89.317 50.5594 89.2556 50.6941 89.2319 50.8926H88.5726C88.5773 50.7177 88.6128 50.5688 88.6789 50.4459C88.7498 50.323 88.842 50.2214 88.9554 50.1411C89.0689 50.0607 89.2012 50.0016 89.3525 49.9638C89.5037 49.926 89.6644 49.9071 89.8346 49.9071C90.2363 49.9071 90.5364 49.9922 90.7349 50.1623C90.9335 50.3325 91.0327 50.6185 91.0327 51.0202V53.3598H90.423ZM89.1752 52.5445C89.1752 52.6816 89.2154 52.7832 89.2957 52.8493C89.3761 52.9155 89.4777 52.9486 89.6006 52.9486C89.7471 52.9486 89.8818 52.9084 90.0047 52.8281C90.1276 52.743 90.2198 52.6319 90.2812 52.4949C90.3237 52.4051 90.3545 52.3129 90.3734 52.2184C90.3923 52.1238 90.4017 52.0293 90.4017 51.9348V51.8426H90.2316C90.0945 51.8426 89.9622 51.8568 89.8346 51.8851C89.7069 51.9088 89.5935 51.949 89.4942 52.0057C89.3997 52.0624 89.3217 52.1356 89.2603 52.2255C89.2036 52.3153 89.1752 52.4216 89.1752 52.5445ZM94.2357 53.3953C94.0702 53.4236 93.9095 53.4378 93.7536 53.4378C93.4227 53.4378 93.1722 53.3716 93.002 53.2393C92.8366 53.1069 92.7539 52.873 92.7539 52.5374V50.4743H92.2222V49.9851H92.7539V49.1911L93.3849 48.8437V49.9851H94.2782V50.4743H93.3849V52.3743C93.3849 52.5587 93.4227 52.7005 93.4983 52.7997C93.5739 52.8942 93.7063 52.9415 93.8953 52.9415C93.9473 52.9415 94.0017 52.9391 94.0584 52.9344C94.1151 52.9297 94.1742 52.9155 94.2357 52.8919V53.3953ZM95.5532 49.1556V48.4679H96.2835V49.1556H95.5532ZM95.5958 53.3598V49.9851H96.2338V53.3598H95.5958ZM99.0851 53.4378C98.8204 53.4378 98.5959 53.3929 98.4115 53.3031C98.2272 53.2086 98.076 53.0809 97.9578 52.9202C97.8444 52.7595 97.7617 52.5728 97.7097 52.3602C97.6577 52.1475 97.6317 51.9206 97.6317 51.6795C97.6317 51.4385 97.6553 51.2116 97.7026 50.9989C97.7546 50.7815 97.8373 50.5925 97.9507 50.4318C98.0641 50.2711 98.213 50.1434 98.3974 50.0489C98.5864 49.9544 98.8157 49.9071 99.0851 49.9071C99.3497 49.9071 99.5743 49.9544 99.7586 50.0489C99.9429 50.1434 100.092 50.2711 100.205 50.4318C100.323 50.5925 100.408 50.7815 100.46 50.9989C100.512 51.2116 100.538 51.4385 100.538 51.6795C100.538 51.9206 100.512 52.1475 100.46 52.3602C100.408 52.5728 100.323 52.7595 100.205 52.9202C100.092 53.0809 99.9429 53.2086 99.7586 53.3031C99.5743 53.3929 99.3497 53.4378 99.0851 53.4378ZM99.0851 52.9486C99.241 52.9486 99.3663 52.9108 99.4608 52.8352C99.5553 52.7548 99.6286 52.6532 99.6806 52.5303C99.7373 52.4027 99.7751 52.2633 99.794 52.112C99.8129 51.9608 99.8224 51.8142 99.8224 51.6725C99.8224 51.5307 99.8129 51.3841 99.794 51.2329C99.7751 51.0769 99.7373 50.9375 99.6806 50.8146C99.6286 50.6917 99.5553 50.5901 99.4608 50.5097C99.3663 50.4294 99.241 50.3892 99.0851 50.3892C98.9291 50.3892 98.8015 50.4294 98.7022 50.5097C98.603 50.5901 98.5273 50.6917 98.4753 50.8146C98.4234 50.9375 98.3879 51.0746 98.369 51.2258C98.3501 51.377 98.3406 51.5259 98.3406 51.6725C98.3406 51.819 98.3501 51.9679 98.369 52.1191C98.3879 52.2704 98.4234 52.4074 98.4753 52.5303C98.5321 52.6532 98.6077 52.7548 98.7022 52.8352C98.8015 52.9108 98.9291 52.9486 99.0851 52.9486ZM103.83 53.3598V51.3463C103.83 51.0722 103.804 50.8595 103.752 50.7083C103.7 50.5523 103.577 50.4743 103.383 50.4743C103.203 50.4743 103.055 50.5476 102.936 50.6941C102.818 50.8359 102.726 51.006 102.66 51.2045C102.617 51.3274 102.584 51.4574 102.561 51.5945C102.542 51.7315 102.532 51.8639 102.532 51.9915V53.3598H101.901V49.9851H102.532V50.6586H102.546C102.589 50.5546 102.639 50.4578 102.695 50.3679C102.752 50.2781 102.818 50.2002 102.894 50.134C102.974 50.0631 103.066 50.0087 103.17 49.9709C103.279 49.9284 103.404 49.9071 103.546 49.9071C103.849 49.9071 104.076 50.0064 104.227 50.2049C104.383 50.3987 104.461 50.6586 104.461 50.9848V53.3598H103.83ZM107.736 53.3598V52.9132H107.715C107.606 53.1022 107.467 53.2369 107.296 53.3173C107.126 53.3976 106.937 53.4378 106.729 53.4378C106.431 53.4378 106.2 53.3598 106.034 53.2038C105.874 53.0479 105.793 52.8446 105.793 52.5941C105.793 52.2018 105.954 51.9064 106.276 51.7079C106.602 51.5094 107.044 51.4101 107.601 51.4101H107.715V51.1478C107.715 51.0297 107.708 50.9233 107.693 50.8288C107.679 50.7342 107.651 50.6539 107.608 50.5877C107.571 50.5216 107.514 50.4696 107.438 50.4318C107.367 50.3939 107.273 50.375 107.155 50.375C106.975 50.375 106.833 50.4128 106.729 50.4885C106.63 50.5594 106.569 50.6941 106.545 50.8926H105.886C105.89 50.7177 105.926 50.5688 105.992 50.4459C106.063 50.323 106.155 50.2214 106.268 50.1411C106.382 50.0607 106.514 50.0016 106.665 49.9638C106.817 49.926 106.977 49.9071 107.148 49.9071C107.549 49.9071 107.849 49.9922 108.048 50.1623C108.246 50.3325 108.346 50.6185 108.346 51.0202V53.3598H107.736ZM106.488 52.5445C106.488 52.6816 106.528 52.7832 106.609 52.8493C106.689 52.9155 106.791 52.9486 106.914 52.9486C107.06 52.9486 107.195 52.9084 107.318 52.8281C107.441 52.743 107.533 52.6319 107.594 52.4949C107.637 52.4051 107.667 52.3129 107.686 52.2184C107.705 52.1238 107.715 52.0293 107.715 51.9348V51.8426H107.545C107.408 51.8426 107.275 51.8568 107.148 51.8851C107.02 51.9088 106.906 51.949 106.807 52.0057C106.713 52.0624 106.635 52.1356 106.573 52.2255C106.517 52.3153 106.488 52.4216 106.488 52.5445ZM109.939 53.3598V48.4679H110.577V53.3598H109.939Z" fill="#AFAFAF"/>
<circle cx="43.1764" cy="31.5444" r="2.72681" fill="#AFAFAF"/>
</svg>
