<svg width="128" height="80" viewBox="0 0 128 80" fill="none" xmlns="http://www.w3.org/2000/svg">
<path d="M94.0152 38.8182H93.65C93.2464 38.8182 93.0543 38.6068 93.0543 38.2033V37.9534C93.0543 37.5499 93.2657 37.3385 93.65 37.3385H94.0152V36.9926C94.0152 34.6095 96.1291 34.2252 96.8978 34.2252H97.1284C97.532 34.2252 97.7242 34.4366 97.7242 34.8402V35.2245C97.7242 35.6281 97.4936 35.8011 97.09 35.8203C96.6288 35.8587 95.8985 35.9548 95.8985 37.0502V37.3385H96.8978C97.3014 37.3385 97.4936 37.5691 97.4936 37.9534V38.2033C97.4936 38.6068 97.2822 38.8182 96.8978 38.8182H95.8985V44.1223C95.8985 44.5259 95.6679 44.7373 95.2835 44.7373H94.6301C94.2265 44.7373 94.0344 44.5259 94.0344 44.1223V38.8182H94.0152ZM102.702 37.0502C100.434 37.0502 98.8772 38.6645 98.8772 40.9898C98.8772 43.123 100.434 44.9295 102.913 44.9295C104.085 44.9295 104.989 44.4875 105.469 44.18C105.796 43.9878 105.853 43.6996 105.68 43.3536L105.507 43.0654C105.315 42.7194 105.046 42.681 104.681 42.854C104.335 43.0846 103.759 43.3344 103.067 43.3344C101.933 43.3344 100.934 42.6234 100.799 41.2781H105.392C105.757 41.2781 106.045 40.9706 106.045 40.6439C106.045 38.5684 104.854 37.0502 102.702 37.0502ZM100.857 40.1251C101.03 39.1257 101.721 38.4531 102.663 38.4531C103.528 38.4531 104.162 39.0681 104.181 40.1251H100.857ZM111.657 37.0502C109.389 37.0502 107.833 38.6645 107.833 40.9898C107.833 43.123 109.389 44.9295 111.868 44.9295C113.041 44.9295 113.944 44.4875 114.424 44.18C114.751 43.9878 114.809 43.6996 114.636 43.3536L114.463 43.0654C114.271 42.7194 114.002 42.681 113.636 42.854C113.291 43.0846 112.714 43.3344 112.022 43.3344C110.888 43.3344 109.889 42.6234 109.755 41.2781H114.348C114.713 41.2781 115.001 40.9706 115.001 40.6439C114.982 38.5684 113.79 37.0502 111.657 37.0502ZM109.793 40.1251C109.966 39.1257 110.658 38.4531 111.599 38.4531C112.464 38.4531 113.098 39.0681 113.118 40.1251H109.793ZM117.595 42.066C117.595 44.1031 119.19 44.8334 120.536 44.8334C121.055 44.8334 121.304 44.6604 121.304 44.2184V43.7572C121.304 43.3344 121.151 43.1999 120.689 43.1615C120.171 43.1038 119.479 42.8732 119.479 41.7586V38.8375H120.593C120.978 38.8375 121.189 38.6261 121.189 38.2225V37.9727C121.189 37.5691 120.958 37.3577 120.574 37.3577H119.479V35.8203C119.479 35.4167 119.248 35.2053 118.864 35.2053H118.268C117.864 35.2053 117.653 35.4359 117.653 35.8203V37.3577H117.23C116.807 37.3577 116.615 37.5883 116.615 37.9727V38.2225C116.615 38.6261 116.827 38.8375 117.211 38.8375H117.615V42.066H117.595ZM29.8855 35.263C28.694 33.4373 25.7344 31.9767 23.9088 32.0152C23.1785 34.648 19.9307 37.2616 19.9307 37.2616C19.9307 37.2616 13.4159 33.5526 6.15155 36.1662C5.61345 37.2424 6.72808 41.7201 7.90036 42.6618C11.7631 40.6631 13.8963 41.97 13.8963 41.97C13.8963 41.97 14.5881 48.3887 18.7776 51.6941C20.661 51.771 23.8703 49.6186 24.7736 48.0236C20.8724 45.6213 20.7763 43.1038 20.7763 43.1038C20.7763 43.1038 27.6178 40.7592 29.8855 35.263ZM16.779 33.7063C18.9121 33.7832 20.6802 32.1112 20.757 29.9973C20.8339 27.8641 19.162 26.0961 17.048 26.0192C14.9148 25.9423 13.1468 27.6143 13.0699 29.7282C12.9739 31.8422 14.6458 33.6294 16.779 33.7063Z" fill="#AFAFAF"/>
<path d="M37.2459 37.8381C37.2459 37.4346 37.4573 37.2232 37.8416 37.2232H38.4182C38.8218 37.2232 39.0139 37.4538 39.0139 37.8381V38.2994C39.0139 38.4531 38.9755 38.6453 38.9755 38.6453H39.0331C39.3983 37.915 40.3207 37.0502 41.493 37.0502C42.6269 37.0502 43.3764 37.5883 43.6838 38.6069H43.7223C44.1259 37.8189 45.106 37.0502 46.2975 37.0502C47.8541 37.0502 48.7573 37.9342 48.7573 39.9137V44.1416C48.7573 44.5451 48.5267 44.7565 48.1424 44.7565H47.5082C47.1046 44.7565 46.8932 44.5451 46.8932 44.1416V40.2788C46.8932 39.414 46.7395 38.7798 45.8555 38.7798C44.5871 38.7798 43.9337 40.0866 43.9337 41.3934V44.1608C43.9337 44.5644 43.7223 44.7758 43.3379 44.7758H42.6845C42.2809 44.7758 42.0696 44.5644 42.0696 44.1608V40.298C42.0696 39.4909 41.9542 38.799 41.0702 38.799C39.7442 38.799 39.1292 40.1635 39.1292 41.4126V44.18C39.1292 44.5836 38.9178 44.795 38.5335 44.795H37.8801C37.4765 44.795 37.2843 44.5836 37.2843 44.18V37.8381H37.2459ZM51.3902 35.3398C51.3902 35.7434 51.6016 35.9356 51.9859 35.9356H52.6393C53.0429 35.9356 53.2543 35.7242 53.2543 35.3398V34.8978C53.2543 34.4942 53.0237 34.2829 52.6393 34.2829H51.9859C51.5823 34.2829 51.3902 34.5135 51.3902 34.8978V35.3398ZM51.3902 44.1223C51.3902 44.5259 51.6016 44.7373 51.9859 44.7373H52.6393C53.0429 44.7373 53.2351 44.5259 53.2351 44.1223V37.8381C53.2351 37.4346 53.0237 37.2232 52.6393 37.2232H51.9859C51.5823 37.2232 51.3902 37.4538 51.3902 37.8381V44.1223ZM55.9832 44.1223C55.9832 44.5259 56.1946 44.7373 56.579 44.7373H57.2324C57.6359 44.7373 57.8281 44.5259 57.8281 44.1223V41.7009C57.8281 40.3364 58.5007 38.972 59.8652 38.972C60.2688 38.972 60.4994 38.7414 60.4994 38.357V37.7805C60.4994 37.3769 60.3456 37.1655 59.9421 37.1655C58.8851 37.1655 58.0587 38.1648 57.7512 39.0681H57.7128C57.7128 39.0681 57.7512 38.8375 57.7512 38.5492V37.8381C57.7512 37.4346 57.5206 37.2232 57.1363 37.2232H56.5597C56.1562 37.2232 55.964 37.4538 55.964 37.8381V44.1223H55.9832ZM66.1686 40.1058C64.4775 40.1058 61.7678 40.471 61.7678 42.681C61.7678 44.0455 62.8824 44.9295 64.2661 44.9295C65.9188 44.9295 66.6298 43.5074 66.6298 43.5074H66.6683C66.6683 43.5074 66.6298 43.6227 66.6298 43.8341V44.1223C66.6298 44.5259 66.8412 44.7373 67.2448 44.7373H67.7445C68.148 44.7373 68.3594 44.5259 68.3594 44.1223V40.029C68.3594 38.1264 67.1872 37.031 65.2462 37.031C64.1315 37.031 63.2667 37.3961 62.7863 37.646C62.4404 37.8381 62.3827 38.1264 62.5557 38.4723L62.7094 38.7606C62.8824 39.1065 63.1706 39.1642 63.5358 39.0104C63.8817 38.8182 64.4582 38.5876 65.0924 38.5876C65.8611 38.5876 66.4953 38.9336 66.4953 39.9137V40.0866H66.1686V40.1058ZM64.7657 43.4882C64.0162 43.4882 63.6319 43.0077 63.6319 42.5081C63.6319 41.3934 65.2462 41.2397 66.1878 41.2397H66.4953V41.5279C66.4761 42.4312 65.8035 43.4882 64.7657 43.4882ZM74.586 37.0502C72.0877 37.0502 70.4926 38.8567 70.4926 40.9899C70.4926 43.1807 72.0877 44.9295 74.586 44.9295C75.8928 44.9295 76.796 44.3914 77.2573 44.0647C77.5455 43.8533 77.6032 43.565 77.411 43.2383L77.2573 42.9501C77.0651 42.6041 76.7768 42.5465 76.4117 42.7579C76.0658 43.0077 75.47 43.3344 74.7205 43.3344C73.2792 43.3344 72.376 42.239 72.376 40.9706C72.376 39.683 73.2792 38.6453 74.6629 38.6453C75.3163 38.6453 75.8159 38.8951 76.1234 39.1065C76.4693 39.2795 76.7192 39.2795 76.9498 38.9528L77.142 38.6645C77.3534 38.3378 77.3341 38.0303 77.0267 37.8189C76.6039 37.4922 75.7967 37.0502 74.586 37.0502ZM79.6595 42.3927C79.6595 44.5451 80.9471 44.8142 81.9464 44.8142C82.3884 44.8142 82.5614 44.5644 82.5614 44.18V43.6803C82.5614 43.3344 82.3692 43.1807 82.1001 43.1422C81.8119 43.1038 81.5044 42.9885 81.5044 42.239V34.8786C81.5044 34.475 81.293 34.2636 80.8894 34.2636H80.236C79.8324 34.2636 79.6403 34.4943 79.6403 34.8786V42.3927H79.6595ZM88.0384 37.0502C85.7707 37.0502 84.2141 38.6645 84.2141 40.9899C84.2141 43.123 85.7707 44.9295 88.2498 44.9295C89.4221 44.9295 90.3253 44.4875 90.8058 44.18C91.1325 43.9878 91.1901 43.6996 91.0172 43.3536L90.8442 43.0654C90.652 42.7195 90.383 42.681 90.0179 42.854C89.6719 43.0846 89.0954 43.3344 88.4036 43.3344C87.2697 43.3344 86.2704 42.6234 86.1359 41.2781H90.7289C91.0941 41.2781 91.3823 40.9706 91.3823 40.6439C91.3823 38.5684 90.1908 37.0502 88.0384 37.0502ZM86.1743 40.1251C86.3473 39.1257 87.0391 38.4531 87.9808 38.4531C88.8456 38.4531 89.4798 39.0681 89.499 40.1251H86.1743ZM24.639 33.1682C23.486 35.7626 20.7378 37.9919 20.6033 38.1072L20.0268 38.5684L19.3926 38.2033C19.3542 38.1841 15.6836 36.147 10.956 36.3199C9.62997 36.3776 8.32316 36.589 7.07401 36.9926C7.05479 37.9919 7.63132 40.2404 8.20786 41.3166C9.39936 40.7977 10.5524 40.5094 11.6478 40.471C13.3774 40.4133 14.3575 40.9706 14.4728 41.0475L14.9341 41.3358L14.9917 41.8739C14.9917 41.9315 15.6451 47.5623 19.162 50.618C20.3919 50.4642 22.1984 49.3304 23.2169 48.3118C19.9115 45.8904 19.7193 43.4689 19.7001 43.1807L19.6616 42.3735L20.4304 42.1045C20.488 42.0853 26.3879 40.0097 28.6556 35.4359C27.6562 34.3213 25.9266 33.4181 24.639 33.1682ZM23.9088 32.0152C25.7345 31.9767 28.694 33.4373 29.8855 35.263C27.6178 40.7592 20.7571 43.1038 20.7571 43.1038C20.7571 43.1038 20.8724 45.6213 24.7543 48.0236C23.8895 49.561 20.8531 51.6173 18.9506 51.6941C18.8929 51.6941 18.8161 51.6941 18.7584 51.6941C14.5689 48.3887 13.8771 41.97 13.8771 41.97C13.8771 41.97 13.1084 41.5087 11.6671 41.5664C10.7062 41.6048 9.41858 41.8739 7.88115 42.681C6.70887 41.7201 5.61346 37.2616 6.13234 36.1854C7.78507 35.5897 9.39936 35.3206 10.8983 35.263C16.0103 35.0708 19.9115 37.2808 19.9115 37.2808C19.9115 37.2808 23.1785 34.6672 23.9088 32.0152ZM16.7982 27.0954C15.3569 27.1531 14.1846 28.3253 14.1461 29.7667C14.0885 31.2849 15.2992 32.5725 16.8174 32.6301C16.8943 32.6301 16.9519 32.6301 17.0288 32.6301C18.4701 32.5725 19.6424 31.4002 19.6809 29.9589C19.7385 28.4407 18.5278 27.1531 17.0096 27.0954C16.9327 27.0762 16.8558 27.0762 16.7982 27.0954ZM16.7598 26C16.8558 26 16.9519 26 17.048 26C19.1812 26.0769 20.8339 27.8641 20.7571 29.9781C20.6802 32.0152 19.0659 33.6102 17.048 33.6871C16.9519 33.6871 16.8558 33.6871 16.7598 33.6871C14.6266 33.6102 12.9739 31.823 13.0507 29.709C13.1276 27.6912 14.7611 26.0769 16.7598 26ZM16.7598 52.4052C15.2608 51.0792 14.0501 49.2535 13.166 46.9858L12.1475 47.3894C13.0892 49.83 14.396 51.7902 16.0295 53.2316L16.7598 52.4052ZM13.781 53.7312C12.897 52.828 12.1283 51.7326 11.4749 50.4642L10.514 50.9639C11.2058 52.3283 12.0514 53.5198 13.0123 54.4999L13.781 53.7312ZM27.81 42.681C29.8663 41.0667 31.3653 39.2603 32.2685 37.2808L31.2884 36.8196C30.462 38.6261 29.0591 40.3172 27.1374 41.8162L27.81 42.681ZM31.7112 43.2383C32.8258 42.1621 33.7098 41.0283 34.3632 39.8176L33.4023 39.2987C32.8066 40.3941 31.9802 41.4703 30.9617 42.4504L31.7112 43.2383Z" fill="#AFAFAF"/>
</svg>
